<svg id="SvgjsSvg1001" width="288" height="288" xmlns="http://www.w3.org/2000/svg" version="1.1" xmlns:xlink="http://www.w3.org/1999/xlink" xmlns:svgjs="http://svgjs.com/svgjs"><defs id="SvgjsDefs1002"></defs><g id="SvgjsG1008"><svg xmlns="http://www.w3.org/2000/svg" xmlns:svgjs="http://svgjs.com/svgjs" xmlns:xlink="http://www.w3.org/1999/xlink" viewBox="0 0 288 288" width="288" height="288"><svg xmlns="http://www.w3.org/2000/svg" version="1.0" viewBox="0 0 1199 600" width="288" height="288"><g class="color000 svgShape" transform="matrix(.1 0 0 -.1 0 600)" fill="#ffffff"><path d="M4343 5860c-31-18-33-23-33-76l0-56 55 4c76 6 97 27 93 92l-3 51-40 3c-26 2-51-4-72-18zM4320 5112c-19-10-102-74-185-143-639-533-1120-864-1590-1096-777-382-1453-451-2125-214-123 43-148 44-206 6-42-27-29-41 79-79 280-99 517-139 832-140 317-1 582 37 900 129 654 190 1214 522 2063 1222 95 79 174 143 176 143 1 0 6-109 9-242 8-322 45-622 123-993 53-257 54-228-8-315-448-627-720-1306-803-2005-66-555 2-912 216-1125 134-134 338-192 514-145 272 72 462 307 560 690 56 219 83 587 65 872-26 409-87 749-279 1558l-60 250 55 66c74 90 217 226 287 272 124 82 238 117 388 117 166 0 293-54 415-176 152-152 240-395 265-730 20-287 18-272 43-278 27-7 90 10 109 29 9 9 16 53 21 137 14 266 92 519 218 709 52 77 131 157 164 165 87 22 203-137 334-461 29-71 57-136 63-142 13-17 71-16 105 1 19 10 50 54 101 148 145 263 250 398 367 468 50 30 67 35 119 35 119-1 221-80 400-315 411-538 856-800 1319-777 67 3 153 13 191 22 544 119 1146 595 1508 1191 74 121 167 307 167 333 0 27-35 36-88 21-40-10-43-14-114-152-259-506-682-953-1101-1164-207-105-370-146-577-146-189 0-315 30-485 115-232 116-419 288-718 664-116 145-185 209-281 260-69 37-74 38-176 38-102 0-107-1-190-41-166-80-301-216-411-415-24-43-47-79-50-79-4 0-14 21-24 48-36 98-138 282-186 335-94 106-205 135-334 87-48-18-75-38-140-104-86-87-146-184-206-334-18-45-36-79-40-75-3 5-18 49-34 98-59 195-168 358-308 461-124 92-344 146-508 125-116-15-206-43-305-96-110-57-181-111-292-219-54-53-96-86-101-80-9 10-48 203-80 399-53 317-75 593-70 880l4 200-35 3c-20 1-50-5-70-16zm249-2174c141-609 196-909 222-1227 16-193 6-549-20-696-57-328-155-567-286-701-96-97-144-119-260-119-82 0-97 3-157 33-91 45-190 151-252 271-138 268-149 637-35 1191 120 579 276 951 654 1563 17 26 34 47 40 47 5 0 48-163 94-362z" class="color000 svgShape" fill="#ffffff"></path></g></svg></svg></g></svg>